<svg width="647" height="624" viewBox="0 0 647 624" fill="none" xmlns="http://www.w3.org/2000/svg">
<path opacity="0.3" d="M506.873 472.03C497.119 481.933 487.891 488.319 480.599 493.364C394.891 552.675 293.476 535.386 271.923 531.164C240.095 524.929 178.572 512.878 134.093 462.43C66.7986 386.107 77.2774 265.862 129.475 186.486C139.023 171.967 189.457 91.3825 291.965 78.4593C354.001 70.6383 426.315 86.4124 478.684 128.727C588.609 217.549 580.784 396.984 506.873 472.03Z" fill="url(#paint0_linear_1_169)"/>
<path d="M517.063 130.974C516.901 131.108 516.674 131.166 516.451 131.108C515.593 130.884 514.728 130.677 513.879 130.492C513.518 130.413 513.292 130.068 513.373 129.72C513.455 129.372 513.813 129.153 514.174 129.232C515.041 129.42 515.925 129.632 516.801 129.86C517.158 129.954 517.369 130.309 517.272 130.653C517.236 130.783 517.161 130.892 517.063 130.974Z" fill="white"/>
<path d="M542.107 237.562C540.921 238.546 539.685 239.498 538.432 240.391C538.135 240.604 537.716 240.543 537.496 240.256C537.276 239.97 537.332 239.568 537.636 239.353C539.077 238.324 540.491 237.219 541.844 236.07C541.846 236.068 541.848 236.066 541.85 236.064C542.128 235.834 542.546 235.861 542.79 236.127C543.034 236.395 543.007 236.803 542.73 237.039C542.523 237.215 542.315 237.389 542.107 237.562ZM548.958 230.941C548.711 231.145 548.34 231.152 548.086 230.942C547.805 230.709 547.772 230.302 548.012 230.03C549.18 228.715 550.305 227.333 551.356 225.925C551.57 225.632 551.99 225.569 552.291 225.777C552.591 225.986 552.66 226.39 552.443 226.679C551.371 228.117 550.222 229.527 549.03 230.871C549.008 230.896 548.983 230.92 548.958 230.941ZM557.018 219.51C556.815 219.678 556.518 219.72 556.268 219.591C555.941 219.425 555.815 219.034 555.989 218.719C556.831 217.183 557.613 215.598 558.313 214.006C558.457 213.677 558.851 213.524 559.191 213.664C559.532 213.803 559.691 214.182 559.546 214.511C558.831 216.136 558.032 217.755 557.173 219.323C557.132 219.396 557.079 219.459 557.018 219.51ZM562.258 206.649C562.095 206.783 561.869 206.841 561.647 206.783C561.29 206.691 561.078 206.337 561.173 205.992C561.638 204.321 562.033 202.608 562.347 200.899C562.412 200.548 562.759 200.313 563.124 200.376C563.488 200.438 563.731 200.773 563.666 201.125C563.345 202.87 562.942 204.62 562.468 206.327C562.431 206.457 562.356 206.567 562.258 206.649ZM564.384 192.987C564.261 193.089 564.098 193.148 563.923 193.142C563.553 193.129 563.264 192.829 563.278 192.473C563.343 190.743 563.332 188.987 563.245 187.254C563.228 186.898 563.514 186.596 563.882 186.577C564.252 186.56 564.566 186.835 564.584 187.191C564.673 188.961 564.684 190.754 564.617 192.52C564.61 192.707 564.521 192.873 564.384 192.987ZM563.309 179.205C563.222 179.277 563.116 179.328 562.997 179.35C562.633 179.416 562.283 179.186 562.214 178.835C561.879 177.129 561.466 175.419 560.985 173.752C560.886 173.408 561.094 173.051 561.451 172.956C561.807 172.86 562.177 173.061 562.276 173.405C562.767 175.108 563.189 176.854 563.53 178.595C563.576 178.83 563.484 179.06 563.309 179.205ZM559.102 165.992C559.052 166.034 558.995 166.069 558.931 166.095C558.592 166.237 558.198 166.087 558.05 165.76C557.334 164.169 556.538 162.589 555.685 161.065C555.509 160.75 555.63 160.36 555.957 160.189C556.282 160.02 556.688 160.137 556.864 160.451C557.736 162.008 558.548 163.621 559.279 165.245C559.399 165.511 559.318 165.813 559.102 165.992ZM551.958 154.008C551.945 154.018 551.932 154.029 551.918 154.039C551.62 154.25 551.2 154.189 550.981 153.901C550.04 152.668 549.039 151.455 548.006 150.297C547.868 150.142 547.729 149.988 547.59 149.834C547.345 149.566 547.373 149.158 547.651 148.923C547.653 148.921 547.654 148.92 547.656 148.918C547.934 148.688 548.353 148.715 548.596 148.981C548.739 149.138 548.88 149.296 549.022 149.454C550.077 150.637 551.099 151.876 552.06 153.136C552.269 153.409 552.221 153.79 551.958 154.008ZM542.217 143.869C541.97 144.074 541.599 144.08 541.344 143.869C539.985 142.74 538.556 141.651 537.096 140.633C536.796 140.424 536.729 140.02 536.945 139.731C537.165 139.443 537.581 139.377 537.881 139.586C539.372 140.626 540.831 141.737 542.218 142.889C542.499 143.122 542.53 143.53 542.289 143.801C542.266 143.825 542.243 143.848 542.217 143.869ZM530.387 136.063C530.184 136.232 529.887 136.273 529.636 136.144C528.045 135.327 526.402 134.568 524.754 133.889C524.414 133.749 524.256 133.369 524.402 133.041C524.548 132.712 524.94 132.56 525.281 132.701C526.964 133.394 528.641 134.169 530.265 135.003C530.592 135.17 530.716 135.562 530.542 135.877C530.502 135.95 530.449 136.012 530.387 136.063Z" fill="white"/>
<path d="M530.949 244.982C530.914 245.011 530.874 245.038 530.831 245.06C530.031 245.478 529.222 245.881 528.426 246.256C528.094 246.413 527.693 246.281 527.53 245.96C527.367 245.639 527.507 245.254 527.837 245.095C528.616 244.728 529.409 244.333 530.193 243.924C530.518 243.754 530.925 243.871 531.101 244.184C531.254 244.457 531.183 244.788 530.949 244.982Z" fill="white"/>
<path d="M480.953 249.606C480.782 249.747 480.543 249.803 480.313 249.732C479.462 249.472 478.6 249.188 477.751 248.89C477.403 248.768 477.224 248.397 477.351 248.062C477.478 247.726 477.862 247.554 478.209 247.676C479.041 247.968 479.885 248.245 480.718 248.5C481.071 248.608 481.266 248.972 481.154 249.312C481.115 249.43 481.044 249.53 480.953 249.606Z" fill="white"/>
<path d="M470.428 245.349C470.225 245.517 469.929 245.558 469.678 245.43C468.086 244.619 466.506 243.73 464.981 242.789C464.669 242.596 464.578 242.196 464.778 241.896C464.979 241.598 465.392 241.508 465.703 241.7C467.197 242.622 468.745 243.493 470.304 244.288C470.631 244.455 470.756 244.846 470.583 245.161C470.543 245.235 470.49 245.298 470.428 245.349ZM458.749 237.723C458.503 237.927 458.134 237.934 457.879 237.725C456.501 236.595 455.158 235.397 453.887 234.163C453.626 233.91 453.628 233.501 453.891 233.25C454.156 232.995 454.577 232.999 454.838 233.253C456.082 234.461 457.397 235.634 458.747 236.74C459.029 236.971 459.063 237.379 458.824 237.651C458.8 237.677 458.775 237.701 458.749 237.723ZM449.079 227.821C449.067 227.83 449.056 227.839 449.044 227.848C448.748 228.063 448.328 228.005 448.106 227.72C447.022 226.329 445.985 224.875 445.025 223.399C444.829 223.096 444.924 222.698 445.237 222.508C445.55 222.318 445.964 222.41 446.16 222.712C447.101 224.158 448.115 225.582 449.177 226.943C449.39 227.217 449.344 227.601 449.079 227.821ZM441.903 216.112C441.855 216.151 441.801 216.185 441.741 216.211C441.403 216.358 441.007 216.213 440.855 215.888C440.113 214.301 439.433 212.663 438.831 211.02C438.708 210.684 438.89 210.314 439.24 210.196C439.589 210.077 439.971 210.253 440.095 210.59C440.684 212.199 441.35 213.803 442.077 215.357C442.201 215.624 442.122 215.93 441.903 216.112ZM437.554 203.175C437.471 203.244 437.369 203.295 437.253 203.317C436.891 203.39 436.537 203.165 436.462 202.816C436.096 201.111 435.801 199.37 435.584 197.641C435.54 197.287 435.801 196.965 436.169 196.922C436.536 196.879 436.87 197.132 436.915 197.486C437.127 199.179 437.416 200.884 437.774 202.554C437.825 202.792 437.733 203.027 437.554 203.175ZM436.227 189.637C436.108 189.736 435.951 189.795 435.78 189.793C435.41 189.787 435.115 189.493 435.121 189.136C435.149 187.394 435.255 185.633 435.435 183.903C435.472 183.549 435.8 183.289 436.168 183.324C436.536 183.36 436.805 183.677 436.768 184.032C436.592 185.726 436.489 187.45 436.461 189.157C436.458 189.349 436.368 189.521 436.227 189.637ZM438.002 176.151C437.844 176.282 437.625 176.34 437.407 176.29C437.048 176.206 436.827 175.857 436.914 175.51C437.338 173.816 437.842 172.12 438.412 170.468C438.529 170.131 438.908 169.948 439.259 170.06C439.61 170.173 439.799 170.538 439.683 170.877C439.125 172.494 438.631 174.155 438.216 175.813C438.181 175.95 438.104 176.066 438.002 176.151ZM442.808 163.368C442.61 163.532 442.323 163.576 442.074 163.458C441.743 163.3 441.606 162.912 441.77 162.593C442.567 161.036 443.444 159.488 444.378 157.993C444.567 157.684 444.98 157.588 445.297 157.772C445.614 157.956 445.716 158.353 445.525 158.658C444.611 160.124 443.752 161.64 442.971 163.165C442.93 163.245 442.874 163.313 442.808 163.368ZM450.388 151.901C450.148 152.1 449.788 152.112 449.532 151.914C449.244 151.691 449.198 151.284 449.43 151.006C450.564 149.643 451.769 148.316 453.01 147.058C453.269 146.802 453.69 146.79 453.957 147.036C454.225 147.282 454.236 147.691 453.98 147.949C452.765 149.18 451.585 150.481 450.474 151.815C450.448 151.847 450.419 151.875 450.388 151.901ZM464.725 139.239C464.704 139.256 464.682 139.272 464.659 139.287C463.187 140.234 461.739 141.253 460.358 142.315C460.069 142.537 459.647 142.491 459.417 142.212C459.186 141.933 459.225 141.526 459.523 141.304C460.934 140.22 462.412 139.179 463.916 138.212C464.224 138.015 464.639 138.094 464.845 138.391C465.035 138.666 464.978 139.029 464.725 139.239Z" fill="white"/>
<path d="M474.777 133.961C474.727 134.002 474.67 134.037 474.607 134.064C473.793 134.404 472.983 134.762 472.198 135.129C471.865 135.285 471.465 135.15 471.304 134.83C471.142 134.508 471.28 134.122 471.614 133.966C472.415 133.592 473.243 133.226 474.074 132.878C474.413 132.737 474.807 132.886 474.955 133.214C475.075 133.48 474.994 133.781 474.777 133.961Z" fill="white"/>
<path d="M486.113 144.58C485.79 144.636 485.539 144.883 485.488 145.196L484.039 154.117C480.023 155.786 476.254 158.084 472.907 160.984L463.906 158.519C463.59 158.433 463.253 158.549 463.065 158.809L456.643 167.695C456.455 167.955 456.459 168.3 456.652 168.556L462.165 175.848C460.501 179.881 459.57 184.086 459.337 188.297L451.159 192.696C450.873 192.85 450.719 193.162 450.776 193.474L452.75 204.137C452.808 204.449 453.064 204.691 453.389 204.74L462.639 206.137C464.369 210.01 466.752 213.645 469.759 216.873L467.203 225.555C467.113 225.859 467.234 226.185 467.503 226.366L476.717 232.56C476.986 232.741 477.345 232.737 477.61 232.551L485.171 227.234C489.352 228.838 493.712 229.736 498.079 229.961L502.639 237.848C502.799 238.125 503.123 238.273 503.446 238.217L514.502 236.313C514.826 236.258 515.077 236.011 515.127 235.698L516.576 226.777C520.592 225.108 524.361 222.81 527.708 219.91L536.71 222.375C537.025 222.461 537.363 222.345 537.551 222.085L543.973 213.199C544.161 212.94 544.157 212.594 543.964 212.338L538.451 205.046C540.114 201.013 541.046 196.808 541.279 192.596L549.456 188.198C549.743 188.044 549.897 187.731 549.839 187.42L547.865 176.757C547.807 176.445 547.551 176.203 547.227 176.154L537.977 174.757C536.247 170.884 533.864 167.249 530.856 164.02L533.412 155.339C533.502 155.035 533.381 154.709 533.112 154.528L523.899 148.334C523.629 148.153 523.271 148.157 523.006 148.343L515.445 153.66C511.263 152.056 506.903 151.158 502.537 150.932L497.976 143.046C497.816 142.769 497.492 142.621 497.169 142.677L486.113 144.58Z" fill="url(#paint1_linear_1_169)"/>
<path d="M507.48 198.468C506.691 199.123 505.799 199.672 504.823 200.096C502.151 201.26 499.169 201.35 496.426 200.35C493.683 199.35 491.509 197.38 490.302 194.802C489.096 192.224 489.003 189.348 490.04 186.703C491.076 184.058 493.119 181.96 495.792 180.797C498.464 179.633 501.447 179.543 504.19 180.544C506.932 181.544 509.107 183.514 510.313 186.092C511.519 188.669 511.613 191.545 510.576 194.191C509.918 195.87 508.853 197.329 507.48 198.468ZM494.449 183.894C493.327 184.825 492.458 186.016 491.92 187.389C491.073 189.549 491.149 191.899 492.134 194.005C493.12 196.11 494.896 197.72 497.137 198.537C499.377 199.354 501.814 199.28 503.997 198.33C506.181 197.38 507.85 195.667 508.696 193.505C509.543 191.344 509.467 188.995 508.481 186.889C507.496 184.783 505.72 183.174 503.479 182.357C501.238 181.54 498.802 181.613 496.619 182.564C495.822 182.911 495.094 183.359 494.449 183.894Z" fill="white"/>
<path d="M518.701 211.22C509.211 219.092 495.031 220.121 484.298 212.907C482.318 211.575 480.57 210.041 479.064 208.352C470.9 199.199 469.831 185.521 477.312 175.169C477.447 174.984 477.584 174.799 477.723 174.616C478.662 173.384 479.705 172.23 480.833 171.176C480.965 171.052 481.098 170.931 481.232 170.81L482.602 172.229C481.253 173.44 480.028 174.803 478.961 176.278C478.951 176.292 478.941 176.306 478.931 176.32C470.74 187.702 473.658 203.391 485.447 211.316C497.251 219.251 513.547 216.446 521.777 205.061C528.723 195.45 527.731 182.749 520.151 174.251C518.752 172.683 517.13 171.258 515.291 170.022C511.41 167.414 506.878 165.87 502.184 165.559L502.322 163.625C507.379 163.961 512.26 165.622 516.44 168.432C518.42 169.764 520.168 171.298 521.674 172.987C529.838 182.14 530.907 195.818 523.426 206.169C522.045 208.08 520.452 209.767 518.701 211.22Z" fill="white"/>
<path d="M464.163 83.7992C464.066 83.8802 463.929 83.9149 463.795 83.8799C463.28 83.7452 462.76 83.6209 462.249 83.5095C462.032 83.4624 461.896 83.2547 461.945 83.0455C461.995 82.8364 462.21 82.7049 462.427 82.7521C462.948 82.8653 463.479 82.9923 464.006 83.1299C464.22 83.1859 464.347 83.3992 464.289 83.6061C464.267 83.6843 464.222 83.7502 464.163 83.7992Z" fill="white"/>
<path d="M479.216 147.862C478.503 148.453 477.76 149.026 477.007 149.563C476.828 149.69 476.576 149.654 476.444 149.481C476.312 149.309 476.346 149.068 476.528 148.938C477.394 148.32 478.244 147.656 479.057 146.965C479.058 146.964 479.059 146.963 479.061 146.962C479.228 146.824 479.479 146.84 479.625 147C479.772 147.161 479.756 147.406 479.589 147.548C479.465 147.653 479.341 147.758 479.216 147.862ZM483.333 143.883C483.185 144.006 482.962 144.009 482.809 143.883C482.64 143.744 482.62 143.498 482.765 143.335C483.467 142.545 484.143 141.714 484.774 140.868C484.903 140.692 485.156 140.654 485.336 140.779C485.517 140.905 485.558 141.147 485.428 141.321C484.783 142.186 484.093 143.033 483.377 143.841C483.363 143.856 483.348 143.87 483.333 143.883ZM488.177 137.012C488.055 137.113 487.877 137.138 487.726 137.061C487.53 136.961 487.455 136.726 487.559 136.536C488.065 135.614 488.535 134.661 488.956 133.704C489.042 133.507 489.279 133.415 489.484 133.498C489.688 133.582 489.784 133.81 489.697 134.008C489.267 134.984 488.787 135.957 488.271 136.9C488.246 136.944 488.214 136.982 488.177 137.012ZM491.327 129.282C491.229 129.363 491.093 129.398 490.96 129.363C490.745 129.308 490.618 129.095 490.675 128.887C490.954 127.883 491.192 126.853 491.381 125.826C491.419 125.615 491.628 125.474 491.847 125.512C492.066 125.549 492.212 125.751 492.173 125.962C491.98 127.011 491.738 128.063 491.453 129.089C491.431 129.167 491.386 129.233 491.327 129.282ZM492.605 121.071C492.531 121.132 492.433 121.168 492.328 121.164C492.105 121.156 491.932 120.976 491.94 120.762C491.979 119.722 491.973 118.667 491.92 117.626C491.91 117.411 492.082 117.23 492.303 117.219C492.525 117.208 492.714 117.373 492.725 117.588C492.778 118.651 492.785 119.729 492.745 120.791C492.74 120.903 492.687 121.003 492.605 121.071ZM491.958 112.788C491.907 112.831 491.843 112.862 491.771 112.875C491.552 112.915 491.342 112.776 491.3 112.565C491.099 111.54 490.851 110.512 490.562 109.51C490.502 109.303 490.628 109.089 490.842 109.032C491.056 108.974 491.278 109.095 491.338 109.302C491.633 110.325 491.886 111.375 492.092 112.421C492.119 112.563 492.064 112.7 491.958 112.788ZM489.43 104.846C489.4 104.871 489.366 104.892 489.328 104.908C489.124 104.994 488.887 104.903 488.798 104.707C488.368 103.751 487.889 102.801 487.377 101.885C487.271 101.696 487.344 101.461 487.54 101.359C487.735 101.257 487.979 101.327 488.085 101.516C488.609 102.452 489.097 103.421 489.537 104.397C489.608 104.557 489.56 104.738 489.43 104.846ZM485.136 97.6434C485.128 97.6498 485.12 97.656 485.112 97.6619C484.933 97.789 484.681 97.752 484.549 97.5791C483.983 96.8379 483.382 96.1089 482.761 95.4126C482.678 95.3198 482.594 95.2269 482.511 95.1349C482.364 94.9736 482.38 94.7284 482.547 94.5869C482.548 94.5859 482.549 94.5851 482.551 94.5843C482.718 94.4457 482.97 94.4622 483.116 94.6223C483.202 94.7166 483.286 94.811 483.371 94.9062C484.006 95.6175 484.62 96.3619 485.198 97.1189C485.323 97.2838 485.294 97.5122 485.136 97.6434ZM479.282 91.5499C479.133 91.673 478.91 91.6763 478.757 91.5494C477.94 90.871 477.081 90.2166 476.204 89.6045C476.023 89.4789 475.983 89.236 476.113 89.0623C476.245 88.8892 476.495 88.8495 476.676 88.9752C477.572 89.6003 478.449 90.2682 479.282 90.9607C479.451 91.1008 479.47 91.3458 479.325 91.5087C479.311 91.5233 479.297 91.5373 479.282 91.5499ZM472.172 86.8581C472.05 86.9594 471.871 86.9841 471.72 86.9065C470.764 86.4156 469.777 85.9598 468.786 85.5511C468.582 85.467 468.487 85.2387 468.574 85.0416C468.662 84.8443 468.898 84.7525 469.103 84.8372C470.114 85.2542 471.122 85.7196 472.098 86.2208C472.295 86.3216 472.369 86.5569 472.265 86.7461C472.24 86.79 472.209 86.8273 472.172 86.8581Z" fill="white"/>
<path d="M472.509 152.322C472.488 152.339 472.464 152.355 472.438 152.369C471.958 152.62 471.471 152.862 470.993 153.088C470.793 153.182 470.552 153.102 470.454 152.91C470.356 152.717 470.441 152.485 470.639 152.39C471.107 152.169 471.584 151.932 472.055 151.686C472.25 151.584 472.495 151.654 472.6 151.842C472.692 152.006 472.65 152.205 472.509 152.322Z" fill="white"/>
<path d="M442.46 155.101C442.357 155.186 442.213 155.219 442.075 155.177C441.564 155.02 441.046 154.85 440.535 154.671C440.326 154.597 440.219 154.374 440.295 154.173C440.372 153.971 440.602 153.868 440.811 153.941C441.311 154.117 441.818 154.283 442.319 154.437C442.531 154.502 442.648 154.72 442.581 154.924C442.557 154.995 442.514 155.056 442.46 155.101Z" fill="white"/>
<path d="M436.134 152.542C436.012 152.643 435.834 152.668 435.683 152.591C434.726 152.103 433.777 151.569 432.86 151.004C432.673 150.888 432.618 150.648 432.738 150.467C432.859 150.288 433.107 150.234 433.294 150.349C434.192 150.904 435.122 151.427 436.06 151.905C436.256 152.005 436.331 152.24 436.227 152.43C436.203 152.474 436.171 152.511 436.134 152.542ZM429.115 147.959C428.967 148.081 428.745 148.085 428.592 147.96C427.764 147.281 426.956 146.561 426.192 145.819C426.036 145.667 426.037 145.421 426.195 145.27C426.354 145.117 426.607 145.12 426.764 145.272C427.512 145.998 428.302 146.703 429.113 147.368C429.283 147.507 429.304 147.752 429.16 147.916C429.146 147.931 429.13 147.946 429.115 147.959ZM423.302 142.007C423.296 142.013 423.288 142.018 423.282 142.024C423.104 142.153 422.851 142.118 422.718 141.947C422.066 141.111 421.443 140.237 420.866 139.349C420.748 139.168 420.806 138.928 420.994 138.814C421.182 138.7 421.431 138.755 421.549 138.937C422.114 139.806 422.724 140.661 423.361 141.48C423.49 141.645 423.462 141.875 423.302 142.007ZM418.99 134.97C418.961 134.994 418.928 135.014 418.892 135.03C418.69 135.117 418.451 135.031 418.36 134.835C417.914 133.881 417.505 132.897 417.143 131.91C417.069 131.707 417.179 131.485 417.389 131.414C417.599 131.343 417.829 131.449 417.903 131.651C418.257 132.618 418.657 133.582 419.094 134.516C419.169 134.677 419.121 134.861 418.99 134.97ZM416.376 127.195C416.326 127.236 416.264 127.267 416.195 127.28C415.977 127.324 415.764 127.189 415.719 126.978C415.5 125.954 415.322 124.907 415.192 123.868C415.165 123.655 415.322 123.462 415.543 123.436C415.764 123.41 415.965 123.562 415.991 123.775C416.119 124.793 416.293 125.817 416.508 126.821C416.539 126.964 416.483 127.105 416.376 127.195ZM415.579 119.057C415.506 119.117 415.412 119.153 415.31 119.151C415.087 119.148 414.91 118.971 414.914 118.757C414.93 117.709 414.994 116.651 415.102 115.611C415.125 115.398 415.322 115.242 415.543 115.263C415.764 115.285 415.925 115.475 415.903 115.688C415.798 116.707 415.735 117.743 415.719 118.769C415.717 118.885 415.663 118.988 415.579 119.057ZM416.645 110.952C416.55 111.031 416.419 111.066 416.288 111.035C416.072 110.985 415.939 110.775 415.991 110.567C416.246 109.549 416.549 108.529 416.891 107.537C416.962 107.334 417.19 107.224 417.4 107.291C417.611 107.359 417.725 107.579 417.655 107.782C417.32 108.754 417.023 109.752 416.773 110.749C416.753 110.831 416.707 110.901 416.645 110.952ZM419.534 103.269C419.415 103.368 419.242 103.394 419.093 103.323C418.893 103.228 418.811 102.995 418.91 102.803C419.389 101.868 419.916 100.937 420.477 100.038C420.591 99.8528 420.839 99.7951 421.03 99.9054C421.22 100.016 421.282 100.255 421.167 100.438C420.617 101.319 420.101 102.23 419.632 103.146C419.607 103.195 419.573 103.236 419.534 103.269ZM424.09 96.3769C423.945 96.4966 423.729 96.504 423.575 96.3849C423.402 96.2505 423.374 96.0063 423.513 95.839C424.195 95.0204 424.919 94.2221 425.665 93.4664C425.821 93.3127 426.074 93.3051 426.234 93.4528C426.396 93.6008 426.402 93.8467 426.249 94.0018C425.518 94.7418 424.809 95.5234 424.141 96.3254C424.126 96.3446 424.108 96.3615 424.09 96.3769ZM432.706 88.7666C432.694 88.777 432.681 88.7868 432.667 88.7955C431.782 89.3648 430.912 89.9769 430.082 90.6152C429.908 90.7489 429.655 90.7213 429.516 90.5536C429.377 90.3856 429.4 90.1412 429.58 90.0078C430.428 89.3559 431.316 88.7307 432.22 88.1495C432.405 88.0306 432.655 88.0785 432.778 88.2571C432.892 88.4223 432.858 88.6408 432.706 88.7666Z" fill="white"/>
<path d="M438.748 85.5943C438.718 85.6192 438.684 85.6402 438.646 85.6562C438.157 85.8609 437.67 86.0762 437.198 86.2967C436.998 86.3902 436.757 86.3093 436.66 86.1165C436.564 85.9233 436.646 85.6913 436.847 85.5975C437.329 85.3726 437.826 85.1526 438.325 84.9435C438.529 84.8583 438.766 84.9484 438.855 85.145C438.927 85.3055 438.878 85.4863 438.748 85.5943Z" fill="white"/>
<path d="M445.561 91.9771C445.367 92.0106 445.216 92.1591 445.186 92.3469L444.315 97.7092C441.901 98.7119 439.636 100.093 437.624 101.836L432.214 100.355C432.024 100.303 431.821 100.373 431.708 100.529L427.848 105.87C427.736 106.026 427.738 106.234 427.854 106.387L431.167 110.77C430.168 113.194 429.608 115.721 429.468 118.252L424.553 120.896C424.38 120.989 424.288 121.176 424.323 121.364L425.509 127.772C425.544 127.96 425.698 128.105 425.893 128.135L431.453 128.975C432.492 131.303 433.924 133.487 435.732 135.428L434.196 140.645C434.142 140.828 434.214 141.024 434.376 141.133L439.914 144.856C440.076 144.964 440.291 144.962 440.451 144.85L444.995 141.655C447.508 142.619 450.129 143.159 452.753 143.294L455.494 148.034C455.59 148.2 455.785 148.289 455.979 148.256L462.624 147.112C462.818 147.078 462.969 146.93 463 146.742L463.871 141.38C466.284 140.377 468.55 138.996 470.561 137.252L475.971 138.734C476.161 138.786 476.364 138.716 476.477 138.56L480.337 133.219C480.45 133.063 480.447 132.855 480.331 132.701L477.018 128.319C478.018 125.895 478.577 123.367 478.718 120.836L483.633 118.193C483.805 118.1 483.897 117.912 483.863 117.725L482.676 111.316C482.641 111.129 482.487 110.983 482.293 110.954L476.733 110.114C475.693 107.786 474.261 105.601 472.454 103.661L473.99 98.4431C474.044 98.2603 473.971 98.0644 473.809 97.9557L468.272 94.2331C468.11 94.1243 467.894 94.1264 467.735 94.2385L463.191 97.434C460.678 96.4699 458.057 95.93 455.433 95.7946L452.691 91.0544C452.595 90.8882 452.401 90.7991 452.206 90.8325L445.561 91.9771Z" fill="url(#paint2_linear_1_169)"/>
<path d="M458.404 124.365C457.929 124.759 457.393 125.089 456.807 125.344C455.201 126.043 453.409 126.097 451.76 125.496C450.112 124.895 448.805 123.711 448.08 122.162C447.354 120.612 447.299 118.884 447.922 117.294C448.545 115.705 449.772 114.444 451.379 113.744C452.985 113.045 454.778 112.991 456.426 113.592C458.075 114.193 459.382 115.377 460.107 116.927C460.832 118.476 460.888 120.205 460.265 121.794C459.869 122.804 459.229 123.681 458.404 124.365ZM450.571 115.606C449.897 116.165 449.375 116.882 449.052 117.707C448.542 119.005 448.588 120.417 449.181 121.683C449.773 122.949 450.84 123.916 452.187 124.407C453.534 124.898 454.998 124.854 456.31 124.282C457.623 123.712 458.626 122.682 459.135 121.382C459.644 120.084 459.598 118.672 459.006 117.406C458.413 116.141 457.346 115.173 455.999 114.682C454.652 114.191 453.188 114.235 451.876 114.806C451.397 115.015 450.959 115.284 450.571 115.606Z" fill="white"/>
<path d="M465.148 132.029C459.444 136.761 450.921 137.38 444.471 133.043C443.28 132.243 442.23 131.321 441.324 130.306C436.418 124.805 435.775 116.584 440.272 110.362C440.353 110.25 440.435 110.14 440.519 110.03C441.083 109.289 441.71 108.595 442.388 107.962C442.467 107.888 442.547 107.814 442.628 107.742L443.451 108.595C442.64 109.323 441.904 110.142 441.263 111.028C441.256 111.037 441.251 111.045 441.245 111.053C436.322 117.894 438.075 127.324 445.161 132.087C452.256 136.857 462.05 135.17 466.997 128.328C471.171 122.551 470.575 114.918 466.019 109.81C465.179 108.868 464.203 108.011 463.098 107.268C460.766 105.701 458.041 104.773 455.221 104.586L455.304 103.424C458.343 103.625 461.277 104.624 463.789 106.313C464.979 107.113 466.029 108.035 466.935 109.05C471.842 114.551 472.484 122.772 467.987 128.994C467.158 130.142 466.2 131.156 465.148 132.029Z" fill="white"/>
<path d="M114.788 477.077C114.788 481.101 118.204 484.393 122.38 484.393H532.944C537.119 484.393 540.536 481.101 540.536 477.077L543.952 249.525C543.952 245.502 539.037 237.647 530.03 238.237L128.781 228.224C123.542 228.093 118.476 230.038 114.766 233.605C111.056 237.171 109.026 242.048 109.149 247.096L114.788 477.077Z" fill="url(#paint3_linear_1_169)"/>
<path d="M122.283 470.059C122.283 473.869 125.515 476.987 129.466 476.987H523.043C526.993 476.987 530.226 473.869 530.226 470.059L533.449 263.485C533.07 251.054 521.769 246.586 514.919 246.85L130.36 236.899C126.679 236.804 123.12 238.172 120.513 240.68C117.906 243.188 116.472 246.62 116.564 250.17L122.283 470.059Z" fill="url(#paint4_linear_1_169)"/>
<path d="M525.973 371.922C525.967 371.922 525.962 371.922 525.957 371.922C525.375 371.914 524.911 371.453 524.92 370.891L525.175 354.138C525.183 353.583 525.653 353.138 526.226 353.138C526.232 353.138 526.237 353.138 526.242 353.138C526.824 353.146 527.288 353.608 527.279 354.169L527.024 370.922C527.016 371.477 526.546 371.922 525.973 371.922Z" fill="white"/>
<path d="M526.598 330.869C526.593 330.869 526.587 330.869 526.582 330.869C526 330.861 525.536 330.398 525.545 329.838L526.522 265.674C526.503 261.863 525.304 258.82 522.956 256.651C518.573 252.601 511.616 252.808 511.322 252.821L388.409 249.642C387.828 249.628 387.369 249.161 387.385 248.6C387.4 248.04 387.847 247.563 388.466 247.613L511.306 250.792C512.071 250.749 519.479 250.625 524.412 255.184C527.188 257.749 528.606 261.283 528.627 265.685L527.65 329.868C527.641 330.424 527.172 330.869 526.598 330.869Z" fill="white"/>
<path d="M82.4669 503.282H564.533C565.076 503.282 565.519 502.854 565.519 502.331V484.24C565.519 483.717 565.076 483.289 564.533 483.289H82.4669C81.9247 483.289 81.4808 483.717 81.4808 484.24V502.331C81.4808 502.854 81.9245 503.282 82.4669 503.282Z" fill="url(#paint5_linear_1_169)"/>
<path d="M201.968 151.753C201.968 137.82 213.679 126.526 228.125 126.526H450.561C462.833 126.526 472.952 135.801 473.576 147.621L489.995 458.649C490.483 467.898 482.934 475.701 473.332 475.869L218.391 480.338C209.37 480.496 201.968 473.486 201.968 464.783V151.753H201.968Z" fill="url(#paint6_linear_1_169)"/>
<path d="M255.652 475.05C255.649 475.05 255.646 475.05 255.644 475.05L227.117 474.695C217.579 474.575 209.819 466.994 209.819 457.794V416.255C209.819 415.931 210.091 415.668 210.428 415.668C210.764 415.668 211.037 415.931 211.037 416.255V457.794C211.037 466.354 218.257 473.409 227.133 473.52L255.659 473.876C255.996 473.88 256.265 474.146 256.26 474.47C256.256 474.792 255.984 475.05 255.652 475.05Z" fill="url(#paint7_linear_1_169)"/>
<path d="M210.428 403.976C210.092 403.976 209.819 403.713 209.819 403.389V396.662C209.819 396.337 210.092 396.074 210.428 396.074C210.764 396.074 211.037 396.337 211.037 396.662V403.389C211.037 403.713 210.764 403.976 210.428 403.976Z" fill="url(#paint8_linear_1_169)"/>
<path d="M220.191 131.313C220.164 126.856 224.229 123.406 228.809 124.005C259.185 127.978 363.639 140.265 450 133.871C453.939 133.58 457.357 136.458 457.566 140.262L474.783 452.676C475.019 456.959 471.627 460.623 467.187 460.876C430.865 462.949 281.279 470.963 227.924 465.573C224.677 465.245 222.212 462.608 222.193 459.459L220.191 131.313Z" fill="url(#paint9_linear_1_169)"/>
<path opacity="0.6" d="M223.769 139.142C223.743 134.853 227.655 131.532 232.062 132.109C261.294 135.932 361.815 147.757 444.925 141.604C448.715 141.323 452.004 144.093 452.206 147.754L468.774 448.404C469.001 452.526 465.737 456.051 461.464 456.295C426.51 458.29 282.557 466.002 231.211 460.815C228.086 460.5 225.714 457.962 225.695 454.932L223.769 139.142Z" fill="white"/>
<path opacity="0.78" d="M250.83 162.322L253.934 226.778C254.038 228.922 255.833 230.627 258.058 230.687C270.435 231.024 309.003 231.931 330.781 230.836C333.244 230.712 335.193 228.79 335.274 226.413C335.69 214.325 336.598 179.142 333.742 164.434C333.281 162.059 331.164 160.318 328.659 160.233L255.5 157.766C252.862 157.677 250.707 159.779 250.83 162.322Z" fill="white"/>
<g opacity="0.6">
<path d="M433.862 167.933C435.296 167.933 436.439 166.96 436.403 165.771C436.367 164.581 435.165 163.588 433.732 163.564L353.508 162.185C352.074 162.16 351.291 163.207 351.767 164.511L352.151 165.562C352.627 166.866 354.19 167.933 355.623 167.933H433.862Z" fill="white"/>
</g>
<g opacity="0.6">
<path d="M353.508 174.201C352.074 174.176 351.291 175.223 351.767 176.527L352.151 177.578C352.627 178.882 354.19 179.949 355.623 179.949H433.862C435.296 179.949 436.439 178.976 436.403 177.787C436.367 176.597 435.165 175.604 433.732 175.58L353.508 174.201Z" fill="white"/>
</g>
<g opacity="0.6">
<path d="M353.508 186.392C352.074 186.367 351.291 187.414 351.767 188.718L352.151 189.769C352.627 191.073 354.19 192.14 355.623 192.14H433.862C435.296 192.14 436.439 191.167 436.403 189.978C436.367 188.788 435.165 187.795 433.732 187.771L353.508 186.392Z" fill="white"/>
</g>
<g opacity="0.6">
<path d="M441.655 250.93C443.088 250.93 444.194 249.957 444.113 248.768C444.031 247.579 442.792 246.597 441.359 246.586L253.414 245.157C251.981 245.146 251.539 246.022 252.432 247.104L253.967 248.964C254.86 250.045 256.764 250.93 258.197 250.93H441.655V250.93Z" fill="white"/>
</g>
<g opacity="0.6">
<path d="M253.414 260.572C251.981 260.561 251.539 261.437 252.432 262.518L253.967 264.378C254.86 265.46 256.764 266.345 258.197 266.345H441.655C443.088 266.345 444.194 265.372 444.113 264.182C444.031 262.993 442.792 262.011 441.359 262L253.414 260.572Z" fill="white"/>
</g>
<path d="M276.82 339.116C276.806 339.116 276.792 339.116 276.777 339.116L260.915 338.969C258.649 338.948 256.778 337.444 256.563 335.472L255.169 322.636C255.087 321.882 255.33 321.138 255.852 320.538C256.437 319.868 257.321 319.447 258.279 319.383C259.615 319.295 261.498 319.14 263.49 318.977C267.685 318.632 272.907 318.204 275.844 318.168C277.976 318.158 279.784 319.375 280.286 321.165C281.112 324.111 281.04 329.689 280.883 335.631C280.832 337.561 279.013 339.116 276.82 339.116ZM258.362 320.555C257.733 320.597 257.157 320.866 256.785 321.294C256.477 321.647 256.333 322.08 256.38 322.513L257.775 335.349C257.925 336.728 259.28 337.779 260.927 337.795L276.789 337.942C276.8 337.942 276.81 337.942 276.821 337.942C278.358 337.942 279.631 336.897 279.665 335.601C279.82 329.749 279.894 324.266 279.11 321.471C278.759 320.219 277.408 319.348 275.86 319.343C272.966 319.378 267.769 319.805 263.593 320.148C261.596 320.312 259.708 320.467 258.362 320.555Z" fill="white"/>
<path opacity="0.6" d="M260.069 321.88C263.401 321.66 270.644 320.951 274.078 320.91C275.534 320.892 276.811 321.74 277.152 322.958C277.815 325.322 277.727 330.034 277.612 334.383C277.577 335.686 276.337 336.726 274.822 336.712L262.146 336.594C260.588 336.58 259.294 335.555 259.148 334.22L258.034 323.962C257.919 322.901 258.834 321.962 260.069 321.88Z" fill="white"/>
<g opacity="0.6">
<path d="M290.753 330.593C291.212 332.273 292.794 333.438 294.595 333.423L441.359 332.216C443.019 332.202 444.347 330.882 444.311 329.281C444.276 327.725 442.961 326.479 441.347 326.472L294.579 325.826C291.988 325.814 290.092 328.177 290.753 330.593Z" fill="white"/>
</g>
<path d="M276.82 371.905C276.806 371.905 276.792 371.905 276.777 371.905L260.915 371.758C258.649 371.737 256.778 370.233 256.563 368.26L255.169 355.424C255.087 354.67 255.33 353.926 255.852 353.327C256.437 352.656 257.321 352.235 258.279 352.171C259.615 352.084 261.498 351.929 263.49 351.765C267.685 351.421 272.907 350.992 275.844 350.956C275.866 350.956 275.887 350.956 275.908 350.956C277.994 350.956 279.789 352.181 280.286 353.953C281.112 356.899 281.04 362.477 280.882 368.419C280.832 370.349 279.013 371.905 276.82 371.905ZM258.362 353.344C257.733 353.385 257.157 353.655 256.785 354.083C256.477 354.435 256.333 354.868 256.38 355.301L257.775 368.137C257.925 369.516 259.28 370.568 260.927 370.583L276.789 370.73C276.8 370.73 276.81 370.73 276.821 370.73C278.358 370.73 279.631 369.686 279.665 368.389C279.82 362.537 279.894 357.054 279.11 354.259C278.759 353.008 277.389 352.108 275.859 352.131C272.966 352.166 267.769 352.593 263.593 352.936C261.596 353.1 259.708 353.255 258.362 353.344Z" fill="white"/>
<path opacity="0.6" d="M260.069 354.669C263.401 354.449 270.644 353.74 274.078 353.698C275.534 353.681 276.811 354.529 277.152 355.746C277.815 358.11 277.727 362.823 277.612 367.172C277.577 368.474 276.337 369.514 274.822 369.5L262.146 369.383C260.588 369.368 259.294 368.343 259.148 367.008L258.034 356.751C257.919 355.69 258.834 354.75 260.069 354.669Z" fill="white"/>
<g opacity="0.6">
<path d="M290.753 363.382C291.212 365.061 292.794 366.226 294.595 366.211L441.359 365.004C443.019 364.991 444.347 363.67 444.311 362.069C444.276 360.513 442.961 359.267 441.347 359.26L294.579 358.614C291.988 358.603 290.092 360.966 290.753 363.382Z" fill="white"/>
</g>
<path d="M276.82 404.693C276.806 404.693 276.792 404.693 276.777 404.693L260.915 404.546C258.649 404.525 256.778 403.022 256.563 401.049L255.169 388.213C255.087 387.459 255.33 386.714 255.852 386.115C256.437 385.444 257.321 385.023 258.279 384.96C259.615 384.872 261.498 384.717 263.49 384.554C267.685 384.209 272.907 383.78 275.844 383.745C275.866 383.745 275.887 383.744 275.908 383.744C277.994 383.744 279.789 384.969 280.286 386.741C281.112 389.688 281.04 395.265 280.882 401.207C280.832 403.137 279.013 404.693 276.82 404.693ZM258.362 386.132C257.733 386.173 257.157 386.443 256.785 386.871C256.477 387.223 256.333 387.656 256.38 388.09L257.775 400.926C257.925 402.305 259.28 403.356 260.927 403.371L276.789 403.518C276.8 403.518 276.81 403.518 276.821 403.518C278.358 403.518 279.631 402.473 279.665 401.177C279.82 395.325 279.894 389.842 279.11 387.047C278.759 385.796 277.389 384.891 275.859 384.919C272.966 384.954 267.769 385.381 263.593 385.724C261.596 385.888 259.708 386.043 258.362 386.132Z" fill="white"/>
<path opacity="0.6" d="M260.069 387.457C263.401 387.237 270.644 386.528 274.078 386.487C275.534 386.469 276.811 387.317 277.152 388.534C277.815 390.899 277.727 395.611 277.612 399.96C277.577 401.262 276.337 402.302 274.822 402.288L262.146 402.171C260.588 402.156 259.294 401.131 259.148 399.796L258.034 389.539C257.919 388.478 258.834 387.538 260.069 387.457Z" fill="white"/>
<g opacity="0.6">
<path d="M290.753 396.17C291.212 397.849 292.794 399.014 294.595 399L441.359 397.793C443.019 397.779 444.347 396.459 444.311 394.858C444.276 393.301 442.961 392.055 441.347 392.048L294.579 391.403C291.988 391.391 290.092 393.754 290.753 396.17Z" fill="white"/>
</g>
<path d="M276.82 437.481C276.806 437.481 276.792 437.481 276.777 437.481L260.915 437.334C258.649 437.314 256.778 435.81 256.563 433.837L255.169 421.001C255.087 420.248 255.33 419.502 255.852 418.903C256.437 418.232 257.321 417.811 258.279 417.748C259.615 417.66 261.498 417.505 263.49 417.342C267.685 416.997 272.907 416.569 275.844 416.533C275.866 416.533 275.887 416.532 275.908 416.532C277.994 416.532 279.789 417.758 280.286 419.53C281.112 422.476 281.04 428.054 280.882 433.996C280.832 435.925 279.013 437.481 276.82 437.481ZM258.362 418.92C257.733 418.961 257.157 419.231 256.785 419.659C256.477 420.012 256.333 420.445 256.38 420.878L257.775 433.714C257.925 435.093 259.28 436.145 260.927 436.16L276.789 436.306C276.8 436.306 276.81 436.306 276.821 436.306C278.358 436.306 279.631 435.262 279.665 433.966C279.82 428.114 279.894 422.63 279.11 419.836C278.759 418.584 277.389 417.676 275.859 417.708C272.966 417.743 267.769 418.169 263.593 418.513C261.596 418.676 259.708 418.831 258.362 418.92Z" fill="white"/>
<path opacity="0.6" d="M260.069 420.245C263.401 420.025 270.644 419.316 274.078 419.275C275.534 419.257 276.811 420.105 277.152 421.323C277.815 423.687 277.727 428.399 277.612 432.748C277.577 434.051 276.337 435.091 274.822 435.077L262.146 434.959C260.588 434.945 259.294 433.92 259.148 432.585L258.034 422.327C257.919 421.266 258.834 420.326 260.069 420.245Z" fill="white"/>
<g opacity="0.6">
<path d="M290.753 428.958C291.212 430.638 292.794 431.803 294.595 431.788L441.359 430.581C443.019 430.567 444.347 429.247 444.311 427.646C444.276 426.089 442.961 424.843 441.347 424.836L294.579 424.191C291.988 424.179 290.092 426.542 290.753 428.958Z" fill="white"/>
</g>
<path d="M275.421 310.587C275.407 310.587 275.392 310.587 275.378 310.587L259.515 310.44C257.249 310.419 255.378 308.916 255.164 306.943L253.769 294.107C253.688 293.353 253.93 292.608 254.453 292.009C255.037 291.338 255.922 290.917 256.88 290.854C258.216 290.766 260.098 290.611 262.09 290.448C266.286 290.103 271.507 289.674 274.445 289.639C274.466 289.639 274.487 289.638 274.508 289.638C276.595 289.638 278.389 290.863 278.886 292.635C279.713 295.582 279.64 301.16 279.483 307.101C279.432 309.031 277.614 310.587 275.421 310.587ZM256.963 292.026C256.333 292.067 255.758 292.337 255.385 292.765C255.077 293.118 254.934 293.551 254.981 293.984L256.375 306.82C256.525 308.199 257.88 309.25 259.527 309.265L275.39 309.412C275.4 309.412 275.411 309.412 275.421 309.412C276.958 309.412 278.231 308.368 278.266 307.071C278.42 301.22 278.494 295.736 277.711 292.942C277.359 291.69 275.989 290.782 274.46 290.814C271.566 290.849 266.369 291.275 262.194 291.618C260.196 291.782 258.309 291.937 256.963 292.026Z" fill="white"/>
<path opacity="0.6" d="M258.669 293.351C262.002 293.131 269.244 292.422 272.679 292.381C274.134 292.363 275.411 293.211 275.752 294.428C276.415 296.793 276.327 301.505 276.212 305.854C276.178 307.157 274.938 308.196 273.423 308.182L260.747 308.065C259.188 308.05 257.894 307.026 257.749 305.69L256.634 295.433C256.519 294.372 257.434 293.432 258.669 293.351Z" fill="white"/>
<g opacity="0.6">
<path d="M289.353 302.064C289.812 303.743 291.394 304.908 293.195 304.894L439.96 303.687C441.62 303.673 442.948 302.353 442.912 300.752C442.876 299.195 441.562 297.949 439.948 297.942L293.179 297.296C290.589 297.285 288.692 299.648 289.353 302.064Z" fill="white"/>
</g>
<path d="M353.139 84.1191C345.104 78.7281 338.118 78.8349 333.2 80.2345C328.714 81.5112 325.806 85.6887 326.232 90.1811L328.353 112.508L353.592 114.668C353.592 114.668 368.896 94.6914 353.139 84.1191ZM342.04 102.131C338.564 102.131 335.747 99.4143 335.747 96.0622C335.747 92.7101 338.564 89.9927 342.04 89.9927C345.516 89.9927 348.333 92.7101 348.333 96.0622C348.333 99.4143 345.516 102.131 342.04 102.131Z" fill="url(#paint10_linear_1_169)"/>
<path d="M330.874 103.116C330.563 103.116 330.298 102.887 330.269 102.582L329.931 99.0265C329.9 98.7035 330.147 98.4179 330.482 98.388C330.823 98.357 331.113 98.5962 331.144 98.9198L331.481 102.475C331.512 102.798 331.266 103.084 330.931 103.114C330.912 103.116 330.893 103.116 330.874 103.116ZM330.212 96.1482C329.901 96.1482 329.636 95.9192 329.607 95.6141L329.35 92.9148C328.943 88.6353 331.736 84.6504 335.989 83.4396C339.001 82.5821 342.105 82.4593 345.213 83.0743C345.542 83.139 345.755 83.45 345.687 83.7677C345.62 84.0849 345.3 84.2879 344.968 84.2249C342.057 83.6502 339.152 83.7642 336.333 84.5661C332.636 85.6187 330.209 89.0848 330.563 92.8081L330.819 95.5075C330.85 95.8304 330.603 96.1162 330.269 96.146C330.25 96.1475 330.231 96.1482 330.212 96.1482Z" fill="white"/>
<path d="M293.908 126.937V115.712C293.908 111.837 297.238 108.733 301.253 108.866L381.499 111.517C385.061 111.635 387.945 114.346 388.158 117.777L388.829 128.563L293.908 126.937Z" fill="url(#paint11_linear_1_169)"/>
<path d="M323.83 113.095H320.379C320.042 113.095 319.77 112.833 319.77 112.508C319.77 112.183 320.042 111.921 320.379 111.921H323.83C324.166 111.921 324.439 112.183 324.439 112.508C324.439 112.833 324.166 113.095 323.83 113.095Z" fill="white"/>
<path d="M298.251 123.412C297.915 123.412 297.642 123.149 297.642 122.825V118.284C297.642 114.775 300.602 111.921 304.24 111.921H316.927C317.264 111.921 317.536 112.184 317.536 112.508C317.536 112.833 317.264 113.096 316.927 113.096H304.24C301.274 113.096 298.86 115.423 298.86 118.284V122.825C298.86 123.149 298.588 123.412 298.251 123.412Z" fill="white"/>
<path d="M261.211 129.771C261.404 125.884 264.729 122.829 268.764 122.829L409.089 122.825C414.135 122.825 418.448 126.327 419.309 131.122L419.428 131.783C420.371 137.036 416.178 141.839 410.651 141.839H266.686C263.378 141.839 260.742 139.172 260.901 135.986L261.211 129.771Z" fill="url(#paint12_linear_1_169)"/>
<path d="M278.198 205.994V203.245C278.198 200.732 278.598 198.539 279.399 196.667C280.199 194.796 281.659 192.786 283.776 190.639C285.785 188.519 287.067 186.857 287.624 185.652C288.18 184.448 288.459 182.917 288.459 181.057C288.459 179.356 288.052 177.969 287.237 176.895C286.423 175.822 285.133 175.285 283.369 175.285C280.438 175.285 277.356 176.293 274.126 178.308L270.299 170.454C274.56 167.653 279.283 166.253 284.469 166.253C288.948 166.253 292.483 167.45 295.075 169.846C297.667 172.241 298.964 175.573 298.964 179.84C298.964 182.824 298.516 185.357 297.62 187.438C296.724 189.52 294.865 192.027 292.042 194.959C290.223 196.87 289.062 198.343 288.56 199.376C288.057 200.411 287.807 201.818 287.807 203.598V205.993H278.198V205.994ZM276.284 219.11C276.284 217.042 276.861 215.452 278.015 214.339C279.168 213.226 280.845 212.67 283.043 212.67C285.269 212.67 286.952 213.239 288.092 214.378C289.232 215.517 289.802 217.094 289.802 219.11C289.802 221.1 289.218 222.671 288.052 223.822C286.884 224.974 285.215 225.55 283.043 225.55C280.871 225.55 279.202 224.986 278.035 223.861C276.868 222.737 276.284 221.152 276.284 219.11Z" fill="url(#paint13_linear_1_169)"/>
<path d="M189.762 532.605C189.762 532.605 188.842 537.626 188.392 542.597C188.215 544.54 189.768 546.226 191.789 546.308C198.652 546.583 213.333 547.119 218.601 546.893C219.393 546.859 219.911 546.076 219.618 545.366C219.372 544.771 218.899 544.29 218.295 544.022L194.045 533.273L189.762 532.605Z" fill="url(#paint14_linear_1_169)"/>
<path d="M189.009 529.655L189.748 535.661C189.748 535.661 193.996 537.568 196.897 535.42L195.138 528.727L189.009 529.655Z" fill="url(#paint15_linear_1_169)"/>
<path d="M189.564 416.734C189.245 418.302 187.851 495.007 196.352 529.38C196.491 529.941 196.196 530.519 195.642 530.737C194.339 531.251 191.782 531.995 188.719 532.094C187.77 532.125 186.92 531.53 186.652 530.652C184.222 522.677 172.578 482.719 171.058 444.548C169.361 401.896 171.058 443.096 171.058 443.096L172.054 416.731L189.564 416.734Z" fill="url(#paint16_linear_1_169)"/>
<path d="M161.866 535.225C161.866 535.225 160.402 537.76 158.984 544.496C158.729 545.712 159.61 546.877 160.891 546.998C163.157 547.213 166.646 547.49 169.441 547.471C170.729 547.462 171.734 546.38 171.579 545.147C171.27 542.688 170.305 538.654 167.326 535.51L161.866 535.225Z" fill="url(#paint17_linear_1_169)"/>
<path d="M160.58 527.499L162.307 536.582C162.307 536.582 164.014 537.807 167.391 536.919L166.567 527.146L160.58 527.499Z" fill="url(#paint18_linear_1_169)"/>
<path d="M155.916 419.088C148.963 459.557 157.424 519.112 160.278 530.768C160.452 531.482 161.049 532.029 161.8 532.149C163.073 532.352 165.17 532.518 167.238 531.939C167.95 531.74 168.451 531.12 168.48 530.405C168.862 520.981 168.173 463.129 174.652 440.265C174.98 439.107 175.714 438.096 176.729 437.4L189.303 428.779L190.267 414.843L155.916 419.088Z" fill="url(#paint19_linear_1_169)"/>
<path d="M200.22 342.406C179.383 342.074 156.392 347.682 156.392 347.682C150.181 382.635 155.306 422.95 155.306 422.95C171.437 427.03 189.634 420.455 189.634 420.455C192.315 405.846 204.825 364.731 204.825 364.731C215.005 363.512 223.392 360.679 230.298 356.934C225.03 351.044 222.547 343.55 221.468 339.12C214.101 341.329 206.647 342.508 200.22 342.406Z" fill="url(#paint20_linear_1_169)"/>
<path d="M261.767 312.805C259.721 310.421 257.13 311.549 257.13 311.549C254.064 324.041 237.986 334.17 221.468 339.12C222.547 343.55 225.031 351.044 230.299 356.934C257.711 342.069 261.767 312.805 261.767 312.805Z" fill="url(#paint21_linear_1_169)"/>
<path d="M261.271 313.412C261.485 314.069 259.005 315.068 257.544 312.383C257.493 311.096 256.682 305.581 257.479 304.533C261.727 298.948 269.961 291.947 269.961 291.947C271.353 293.271 270.207 294.573 270.207 294.573L266.212 298.586C267.047 300.042 268.067 301.272 268.544 303.033C268.906 304.367 268.685 305.793 267.986 307.007C267.285 308.225 266.328 309.809 265.424 311.048C263.712 313.394 261.271 313.412 261.271 313.412Z" fill="url(#paint22_linear_1_169)"/>
<path d="M264.464 301.19L260.824 304.166L259.681 307.13L262.927 310.602C262.927 310.602 264.018 304.723 264.829 303.45C265.64 302.178 265.22 301.562 264.464 301.19Z" fill="url(#paint23_linear_1_169)"/>
<path d="M164.385 367.141L156.392 347.682C156.392 347.682 136.93 360.436 133.729 376.607C137.407 376.868 144.098 377.79 150.648 380.98C152.088 373.344 164.385 367.141 164.385 367.141Z" fill="url(#paint24_linear_1_169)"/>
<path d="M181.393 385.451C181.393 385.451 159.541 397.361 152.168 387.191C150.637 385.079 150.271 382.981 150.648 380.98C144.098 377.79 137.407 376.868 133.729 376.606C132.764 381.481 133.274 386.666 136.245 391.906C149.16 414.692 184.284 390.647 184.284 390.647L181.393 385.451Z" fill="url(#paint25_linear_1_169)"/>
<path d="M178.767 400.519L190.693 360.352C190.828 359.896 191.232 359.563 191.72 359.508C193.881 359.265 200.142 358.583 207.371 357.993C216.078 357.283 226.19 356.707 232.233 357.197C233.092 357.266 233.611 358.143 233.229 358.888C229.793 365.592 215.659 392.866 208.581 401.8C208.346 402.096 207.983 402.269 207.597 402.266L179.928 402.017C179.122 402.01 178.545 401.265 178.767 400.519Z" fill="url(#paint26_linear_1_169)"/>
<path d="M208.608 354.511L217.254 353.121C217.715 353.047 218.092 353.472 217.945 353.899L217.089 356.401C217.015 356.619 216.818 356.776 216.582 356.806L208.262 357.878C207.831 357.934 207.477 357.556 207.575 357.149L208.105 354.965C208.162 354.73 208.361 354.551 208.608 354.511Z" fill="url(#paint27_linear_1_169)"/>
<path d="M202.134 361.57L202.846 357.992C202.917 357.633 203.225 357.362 203.601 357.325L221.065 355.616C221.653 355.559 222.124 356.078 221.986 356.632L220.875 361.091C220.787 361.448 220.465 361.706 220.084 361.724L203.019 362.552C202.464 362.579 202.029 362.097 202.134 361.57Z" fill="url(#paint28_linear_1_169)"/>
<path d="M181.648 390.815C181.648 390.815 179.987 384.226 180.657 381.889C181.327 379.552 182.626 376.546 186.953 377.214C191.281 377.882 196.386 379.64 196.386 379.64C196.386 379.64 196.128 382.685 192.839 381.703L194.879 383.225C194.879 383.225 194.587 385.662 191.809 384.36L193.706 386.379C193.706 386.379 192.513 388.381 190.469 387.097C188.425 385.812 187.445 391.608 181.648 390.815Z" fill="url(#paint29_linear_1_169)"/>
<path d="M179.114 326.091L172.484 344.582C172.374 344.889 172.505 345.228 172.799 345.385C174.606 346.348 181.117 349.134 188.964 344.336C189.781 343.836 190.338 343.021 190.462 342.095L192.609 326.091H179.114Z" fill="url(#paint30_linear_1_169)"/>
<path d="M193.54 308.967C193.54 308.967 200.82 322.184 199.887 327.523C198.954 332.862 189.931 332.479 182.052 328.143L176.546 313.871L193.54 308.967Z" fill="url(#paint31_linear_1_169)"/>
<path d="M182.4 321.134C182.72 320.997 182.839 320.619 182.647 320.337C182.064 319.477 180.97 317.724 180.621 316.189C180.621 316.189 179.312 315.381 183.952 314.31C188.592 313.238 195.512 311.576 196.966 307.767C198.384 304.053 194.658 294.714 188.714 302.156C188.488 302.439 188.045 302.445 187.819 302.161C186.845 300.938 184.283 298.4 180.726 299.939C177.398 301.379 177.023 303.731 177.069 304.917C177.082 305.265 176.759 305.537 176.404 305.471C174.721 305.162 170.683 304.896 168.798 308.891C167.245 312.182 168.254 314.045 169.173 314.956C169.471 315.251 169.341 315.737 168.932 315.858C167.826 316.184 166.398 317.089 166.541 319.588C166.739 323.043 170.744 322.738 171.884 322.581C172.071 322.555 172.259 322.617 172.386 322.752C173.363 323.795 177.768 328.226 182.536 328.76C182.949 328.806 183.269 328.413 183.133 328.034L181.07 322.25C180.974 321.981 181.108 321.686 181.377 321.571L182.4 321.134Z" fill="url(#paint32_linear_1_169)"/>
<path d="M183.23 321.955C183.23 321.955 178.046 318.525 177.667 321.414C177.289 324.302 182.335 325.598 184.835 324.521L183.23 321.955Z" fill="url(#paint33_linear_1_169)"/>
<path d="M429.914 318.087C430.256 317.458 431.221 317.557 431.418 318.241C432.148 320.774 433.914 325.194 437.619 326.763C437.806 326.842 437.983 326.922 438.153 327.003C438.322 326.517 438.324 325.953 437.921 325.359C436.769 323.661 438.849 321.342 438.849 321.342C438.849 321.342 438.987 323.385 440.596 324.671C441.983 325.779 442.649 328.244 441.701 330.266C439.696 337.779 436.693 347.715 448.391 354.975C460.089 362.234 476.562 341.274 476.562 341.274L468.386 366.274C468.386 366.274 455.765 375.256 441.086 362.626C426.406 349.995 436.136 331.616 436.136 331.616C436.136 331.616 424.94 327.26 429.914 318.087Z" fill="url(#paint34_linear_1_169)"/>
<path d="M478.611 304.543C478.611 304.543 475.222 289.881 492.636 293.763C492.636 293.763 501.089 292.43 501.519 300.125C501.519 300.125 506.967 303.588 502.978 310.247C502.978 310.247 519.171 304.215 526.226 317.903C533.282 331.592 526.796 339.124 519.998 341.086C519.998 341.086 525.506 343.754 522.899 349.776C520.292 355.799 507.088 360.045 499.288 352.72C499.288 352.72 477.094 355.549 477.539 340.43C477.539 340.43 467.216 334.001 478.058 321.506C488.9 309.011 478.611 304.543 478.611 304.543Z" fill="url(#paint35_linear_1_169)"/>
<path d="M477.655 338.528C481.154 337.517 491.343 335.649 501.034 344.274C502.678 345.737 503.349 347.96 502.763 350.041C500.16 359.284 493.292 386.59 499.314 398.405C499.314 398.405 488.702 409.687 477.125 400.594C477.125 400.594 471.931 378.759 465.127 369.174C460.43 362.557 472.617 344.325 475.701 339.92C476.168 339.253 476.856 338.759 477.655 338.528Z" fill="url(#paint36_linear_1_169)"/>
<path d="M487.317 320.166C487.317 320.166 492.492 334.284 492.881 340.512C492.881 340.512 487.162 343.021 481.772 338.787C481.772 338.787 481.207 324.686 480.389 322.161L487.317 320.166Z" fill="url(#paint37_linear_1_169)"/>
<path d="M480.128 300.917C480.128 300.917 466.592 319.186 474.684 324.493C482.775 329.799 492.411 316.816 492.411 316.816C492.411 316.816 495.552 306.817 492.267 303.425C488.983 300.032 480.128 300.917 480.128 300.917Z" fill="url(#paint38_linear_1_169)"/>
<path d="M486.393 296.551C486.393 296.551 480.175 297.972 479.304 300.685C478.432 303.399 488.122 305.915 490.837 306.038L493.024 316.988C493.024 316.988 499.491 306.687 496.93 300.738C494.368 294.789 486.393 296.551 486.393 296.551Z" fill="url(#paint39_linear_1_169)"/>
<path d="M489.787 315.472C489.787 315.472 495.055 309.587 497.151 313.424C499.247 317.26 492.409 320.14 490.042 318.257L489.787 315.472Z" fill="url(#paint40_linear_1_169)"/>
<path d="M463.61 446.436C463.65 447.428 461.846 455.29 460.864 459.484C460.468 461.171 460.744 462.937 461.634 464.438L495.644 519.644C496.056 520.312 496.355 521.035 496.537 521.792C497.161 524.383 498.453 530.732 497.778 536.508L496.019 540.032L503.628 538.365L505.283 518.658L503.129 517.391C501.268 516.297 499.819 514.661 498.99 512.717C495.914 505.512 488.277 487.173 486.309 478.235C484.072 468.078 472.376 459.827 472.376 459.827L474.431 455.142L463.61 446.436Z" fill="url(#paint41_linear_1_169)"/>
<path d="M512.085 531.584C512.085 531.584 507.976 525.301 507.492 522.855C507.009 520.41 505.663 516.091 503.13 517.391C503.13 517.391 501.936 529.272 502.347 533.914C502.759 538.556 496.906 538.407 496.906 538.407C496.906 538.407 495.293 538.626 494.112 539.765C493.296 540.551 493.879 541.916 495.03 541.987C496.945 542.106 499.988 542.137 503.182 541.542C504.298 541.334 505.126 540.418 505.194 539.323L506.037 525.65L511.22 531.962L512.085 531.584Z" fill="url(#paint42_linear_1_169)"/>
<path d="M483.927 455.23C483.927 455.23 485.127 504.611 485.289 511.625C485.452 518.638 484.141 534.18 476.851 538.826L480.023 541.091C480.023 541.091 483.988 537.841 487.86 531.587C492.211 524.562 493.527 523.278 493.527 523.278L492.083 520.427C491.451 519.179 491.265 517.766 491.556 516.406C493.129 509.052 498.385 484.594 499.818 479.326C501.51 473.109 501.631 464.806 495.743 457.855C489.856 450.905 483.927 455.23 483.927 455.23Z" fill="url(#paint43_linear_1_169)"/>
<path d="M490.659 543.317C490.885 543.319 491.077 543.163 491.109 542.947C491.352 541.3 492.362 534.7 493.188 532.991C494.135 531.034 497.227 522.796 493.186 522.097C493.186 522.097 483.141 536.251 481.213 538.159C479.285 540.068 476.851 538.826 476.851 538.826C476.851 538.826 474.972 539.361 473.555 541.108C472.881 541.939 473.509 543.159 474.603 543.169L481.37 543.231C483.335 543.249 485.102 542.098 485.832 540.338C487.023 537.469 489.069 533.261 491.454 531.394L490.215 542.836C490.187 543.092 490.393 543.314 490.659 543.317Z" fill="url(#paint44_linear_1_169)"/>
<path d="M475.524 395.269C475.524 395.269 477.048 399.956 474.706 407.676L460.176 456.614C459.947 457.383 460.377 458.188 461.158 458.458C465.504 459.963 479.793 464.215 499.297 462.918C500.279 462.853 501.102 462.182 501.316 461.256C502.601 455.677 506.986 436.641 507.889 432.73C511.329 417.827 515.17 401.755 498.272 392.037C490.484 395.254 483.221 397.15 475.524 395.269Z" fill="url(#paint45_linear_1_169)"/>
<path d="M502.421 346.118C502.421 346.118 518.953 359.369 523.056 377.476C527.159 395.584 498.898 397.508 498.898 397.508C498.898 397.508 495.061 393.376 490.506 394.85C485.951 396.323 490.154 387.638 495.483 387.661C500.812 387.684 498.343 391.748 505.882 388.455C513.226 385.246 517.765 375.324 499.028 360.283C497.942 359.411 497.075 358.3 496.553 357.033C492.913 348.196 495.8 342.402 502.421 346.118Z" fill="url(#paint46_linear_1_169)"/>
<defs>
<linearGradient id="paint0_linear_1_169" x1="623.689" y1="672.605" x2="217.565" y2="149.635" gradientUnits="userSpaceOnUse">
<stop stop-color="#B37CFF"/>
<stop offset="1" stop-color="#F895E7"/>
</linearGradient>
<linearGradient id="paint1_linear_1_169" x1="432.906" y1="212.269" x2="619.612" y2="147.283" gradientUnits="userSpaceOnUse">
<stop stop-color="#B37CFF"/>
<stop offset="1" stop-color="#F895E7"/>
</linearGradient>
<linearGradient id="paint2_linear_1_169" x1="413.582" y1="132.66" x2="525.798" y2="93.6017" gradientUnits="userSpaceOnUse">
<stop stop-color="#B37CFF"/>
<stop offset="1" stop-color="#F895E7"/>
</linearGradient>
<linearGradient id="paint3_linear_1_169" x1="326.686" y1="221.287" x2="325.047" y2="564.482" gradientUnits="userSpaceOnUse">
<stop stop-color="#2B3582"/>
<stop offset="1" stop-color="#150E42"/>
</linearGradient>
<linearGradient id="paint4_linear_1_169" x1="489.555" y1="217.887" x2="147.087" y2="529.65" gradientUnits="userSpaceOnUse">
<stop stop-color="#53D8FF"/>
<stop offset="1" stop-color="#3840F7"/>
</linearGradient>
<linearGradient id="paint5_linear_1_169" x1="323.634" y1="503.788" x2="321.171" y2="296.067" gradientUnits="userSpaceOnUse">
<stop stop-color="#2B3582"/>
<stop offset="1" stop-color="#150E42"/>
</linearGradient>
<linearGradient id="paint6_linear_1_169" x1="512.581" y1="22.2765" x2="245.846" y2="507.994" gradientUnits="userSpaceOnUse">
<stop stop-color="#CB236D"/>
<stop offset="1" stop-color="#4C246D"/>
</linearGradient>
<linearGradient id="paint7_linear_1_169" x1="152.99" y1="406.302" x2="379.952" y2="555.804" gradientUnits="userSpaceOnUse">
<stop stop-color="#A737D5"/>
<stop offset="1" stop-color="#EF497A"/>
</linearGradient>
<linearGradient id="paint8_linear_1_169" x1="172.452" y1="376.757" x2="399.414" y2="526.26" gradientUnits="userSpaceOnUse">
<stop stop-color="#A737D5"/>
<stop offset="1" stop-color="#EF497A"/>
</linearGradient>
<linearGradient id="paint9_linear_1_169" x1="153.724" y1="601.627" x2="403.353" y2="173.13" gradientUnits="userSpaceOnUse">
<stop stop-color="#A737D5"/>
<stop offset="1" stop-color="#EF497A"/>
</linearGradient>
<linearGradient id="paint10_linear_1_169" x1="377.956" y1="52.0968" x2="280.29" y2="185.31" gradientUnits="userSpaceOnUse">
<stop stop-color="#CB236D"/>
<stop offset="1" stop-color="#4C246D"/>
</linearGradient>
<linearGradient id="paint11_linear_1_169" x1="389.179" y1="60.3247" x2="291.513" y2="193.538" gradientUnits="userSpaceOnUse">
<stop stop-color="#CB236D"/>
<stop offset="1" stop-color="#4C246D"/>
</linearGradient>
<linearGradient id="paint12_linear_1_169" x1="376.286" y1="68.2648" x2="309.507" y2="195.403" gradientUnits="userSpaceOnUse">
<stop stop-color="#A737D5"/>
<stop offset="1" stop-color="#EF497A"/>
</linearGradient>
<linearGradient id="paint13_linear_1_169" x1="352.086" y1="54.6792" x2="242.428" y2="285.524" gradientUnits="userSpaceOnUse">
<stop stop-color="#A737D5"/>
<stop offset="1" stop-color="#EF497A"/>
</linearGradient>
<linearGradient id="paint14_linear_1_169" x1="217.834" y1="525.665" x2="132.5" y2="621.905" gradientUnits="userSpaceOnUse">
<stop stop-color="#2B3582"/>
<stop offset="1" stop-color="#150E42"/>
</linearGradient>
<linearGradient id="paint15_linear_1_169" x1="189.009" y1="532.584" x2="196.897" y2="532.584" gradientUnits="userSpaceOnUse">
<stop stop-color="#F9B776"/>
<stop offset="1" stop-color="#F47960"/>
</linearGradient>
<linearGradient id="paint16_linear_1_169" x1="224.826" y1="420.309" x2="152.764" y2="521.58" gradientUnits="userSpaceOnUse">
<stop stop-color="#CB236D"/>
<stop offset="1" stop-color="#4C246D"/>
</linearGradient>
<linearGradient id="paint17_linear_1_169" x1="197.912" y1="508.001" x2="112.578" y2="604.241" gradientUnits="userSpaceOnUse">
<stop stop-color="#2B3582"/>
<stop offset="1" stop-color="#150E42"/>
</linearGradient>
<linearGradient id="paint18_linear_1_169" x1="160.58" y1="532.194" x2="167.391" y2="532.194" gradientUnits="userSpaceOnUse">
<stop stop-color="#F9B776"/>
<stop offset="1" stop-color="#F47960"/>
</linearGradient>
<linearGradient id="paint19_linear_1_169" x1="211.359" y1="410.726" x2="139.297" y2="511.996" gradientUnits="userSpaceOnUse">
<stop stop-color="#CB236D"/>
<stop offset="1" stop-color="#4C246D"/>
</linearGradient>
<linearGradient id="paint20_linear_1_169" x1="194.521" y1="355.783" x2="111.38" y2="473.335" gradientUnits="userSpaceOnUse">
<stop stop-color="#FDF53F"/>
<stop offset="1" stop-color="#D93C65"/>
</linearGradient>
<linearGradient id="paint21_linear_1_169" x1="255.553" y1="288.825" x2="242.508" y2="327.47" gradientUnits="userSpaceOnUse">
<stop stop-color="#F9B776"/>
<stop offset="1" stop-color="#F47960"/>
</linearGradient>
<linearGradient id="paint22_linear_1_169" x1="267.449" y1="292.84" x2="254.404" y2="331.485" gradientUnits="userSpaceOnUse">
<stop stop-color="#F9B776"/>
<stop offset="1" stop-color="#F47960"/>
</linearGradient>
<linearGradient id="paint23_linear_1_169" x1="256.757" y1="317.342" x2="266.645" y2="296.661" gradientUnits="userSpaceOnUse">
<stop stop-color="#F9B776"/>
<stop offset="1" stop-color="#F47960"/>
</linearGradient>
<linearGradient id="paint24_linear_1_169" x1="171.652" y1="339.609" x2="88.5119" y2="457.161" gradientUnits="userSpaceOnUse">
<stop stop-color="#FDF53F"/>
<stop offset="1" stop-color="#D93C65"/>
</linearGradient>
<linearGradient id="paint25_linear_1_169" x1="133.286" y1="389.161" x2="184.284" y2="389.161" gradientUnits="userSpaceOnUse">
<stop stop-color="#F9B776"/>
<stop offset="1" stop-color="#F47960"/>
</linearGradient>
<linearGradient id="paint26_linear_1_169" x1="201.021" y1="359.445" x2="227.204" y2="472.565" gradientUnits="userSpaceOnUse">
<stop stop-color="#2B3582"/>
<stop offset="0.2431" stop-color="#262C72"/>
<stop offset="1" stop-color="#150E42"/>
</linearGradient>
<linearGradient id="paint27_linear_1_169" x1="217.271" y1="336.429" x2="211.696" y2="361.81" gradientUnits="userSpaceOnUse">
<stop stop-color="#A737D5"/>
<stop offset="1" stop-color="#EF497A"/>
</linearGradient>
<linearGradient id="paint28_linear_1_169" x1="214.145" y1="347.039" x2="211.483" y2="363.599" gradientUnits="userSpaceOnUse">
<stop stop-color="#A737D5"/>
<stop offset="1" stop-color="#EF497A"/>
</linearGradient>
<linearGradient id="paint29_linear_1_169" x1="180.498" y1="384.004" x2="196.386" y2="384.004" gradientUnits="userSpaceOnUse">
<stop stop-color="#F9B776"/>
<stop offset="1" stop-color="#F47960"/>
</linearGradient>
<linearGradient id="paint30_linear_1_169" x1="172.446" y1="336.579" x2="192.609" y2="336.579" gradientUnits="userSpaceOnUse">
<stop stop-color="#F9B776"/>
<stop offset="1" stop-color="#F47960"/>
</linearGradient>
<linearGradient id="paint31_linear_1_169" x1="197.405" y1="324.207" x2="175.677" y2="310.467" gradientUnits="userSpaceOnUse">
<stop stop-color="#F9B776"/>
<stop offset="1" stop-color="#F47960"/>
</linearGradient>
<linearGradient id="paint32_linear_1_169" x1="163.5" y1="297.419" x2="191.337" y2="320.217" gradientUnits="userSpaceOnUse">
<stop stop-color="#2B3582"/>
<stop offset="1" stop-color="#150E42"/>
</linearGradient>
<linearGradient id="paint33_linear_1_169" x1="191.581" y1="329.071" x2="172.033" y2="316.708" gradientUnits="userSpaceOnUse">
<stop stop-color="#F9B776"/>
<stop offset="1" stop-color="#F47960"/>
</linearGradient>
<linearGradient id="paint34_linear_1_169" x1="424.919" y1="300.487" x2="466.643" y2="369.821" gradientUnits="userSpaceOnUse">
<stop stop-color="#F9B776"/>
<stop offset="1" stop-color="#F47960"/>
</linearGradient>
<linearGradient id="paint35_linear_1_169" x1="547.005" y1="294.23" x2="503.586" y2="324.246" gradientUnits="userSpaceOnUse">
<stop stop-color="#2B3582"/>
<stop offset="1" stop-color="#150E42"/>
</linearGradient>
<linearGradient id="paint36_linear_1_169" x1="429.99" y1="266.313" x2="482.019" y2="366.453" gradientUnits="userSpaceOnUse">
<stop stop-color="#53D8FF"/>
<stop offset="1" stop-color="#3840F7"/>
</linearGradient>
<linearGradient id="paint37_linear_1_169" x1="479.084" y1="347.51" x2="486.845" y2="329.639" gradientUnits="userSpaceOnUse">
<stop stop-color="#F9B776"/>
<stop offset="1" stop-color="#F47960"/>
</linearGradient>
<linearGradient id="paint38_linear_1_169" x1="478.66" y1="304.591" x2="494.418" y2="339.966" gradientUnits="userSpaceOnUse">
<stop stop-color="#F9B776"/>
<stop offset="1" stop-color="#F47960"/>
</linearGradient>
<linearGradient id="paint39_linear_1_169" x1="535.067" y1="276.962" x2="491.647" y2="306.978" gradientUnits="userSpaceOnUse">
<stop stop-color="#2B3582"/>
<stop offset="1" stop-color="#150E42"/>
</linearGradient>
<linearGradient id="paint40_linear_1_169" x1="486.532" y1="301.084" x2="502.29" y2="336.458" gradientUnits="userSpaceOnUse">
<stop stop-color="#F9B776"/>
<stop offset="1" stop-color="#F47960"/>
</linearGradient>
<linearGradient id="paint41_linear_1_169" x1="525.353" y1="567.442" x2="467.259" y2="458.719" gradientUnits="userSpaceOnUse">
<stop stop-color="#F9B776"/>
<stop offset="1" stop-color="#F47960"/>
</linearGradient>
<linearGradient id="paint42_linear_1_169" x1="512.103" y1="529.71" x2="493.84" y2="529.53" gradientUnits="userSpaceOnUse">
<stop stop-color="#2B3582"/>
<stop offset="1" stop-color="#150E42"/>
</linearGradient>
<linearGradient id="paint43_linear_1_169" x1="455.324" y1="488.105" x2="547.796" y2="519.772" gradientUnits="userSpaceOnUse">
<stop stop-color="#F9B776"/>
<stop offset="1" stop-color="#F47960"/>
</linearGradient>
<linearGradient id="paint44_linear_1_169" x1="495.14" y1="532.736" x2="473.369" y2="532.522" gradientUnits="userSpaceOnUse">
<stop stop-color="#2B3582"/>
<stop offset="1" stop-color="#150E42"/>
</linearGradient>
<linearGradient id="paint45_linear_1_169" x1="466.804" y1="391.251" x2="514.828" y2="505.137" gradientUnits="userSpaceOnUse">
<stop stop-color="#2B3582"/>
<stop offset="1" stop-color="#150E42"/>
</linearGradient>
<linearGradient id="paint46_linear_1_169" x1="519.453" y1="402.455" x2="435.721" y2="273.732" gradientUnits="userSpaceOnUse">
<stop stop-color="#F9B776"/>
<stop offset="1" stop-color="#F47960"/>
</linearGradient>
</defs>
</svg>
