<svg width="81" height="70" viewBox="0 0 81 70" fill="none" xmlns="http://www.w3.org/2000/svg">
<g id="Component 1">
<path id="Vector 3" d="M48.7515 10.0457C45.5215 6.11877 42.6213 3.98132 37.2601 3.21946C31.6164 2.41747 26.1946 3.90389 21.0583 6.20846C13.9688 9.38944 10.0133 14.7722 7.17114 21.8401C2.24354 34.0942 0.0609781 50.6513 9.93234 60.9798C18.9814 70.4479 31.4387 67.7325 40.4273 59.8488C50.2572 51.2273 55.2484 36.422 55.2484 23.577C55.2484 18.9475 53.1196 15.7271 50.8021 11.9037C48.6342 8.3272 46.6675 5.13018 42.0109 4.83514C32.7 4.2452 25.2227 10.632 21.9111 18.8107C20.5234 22.2378 19.5576 25.7674 18.9874 29.4136C18.7094 31.1915 18.4991 32.7884 17.6881 34.402" stroke="white" stroke-width="5" stroke-linecap="round"/>
<path id="Vector 4" d="M15.8608 52.2148C15.7233 52.2319 15.1003 52.7056 15.3735 52.3562C17.0627 50.1958 19.5494 48.5209 21.5862 46.7215C27.5796 41.4268 34.8479 35.2535 39.0467 28.4038C39.677 27.3755 40.5911 23.9943 40.7116 25.1926C40.9203 27.2691 40.4742 29.5482 40.3258 31.6149C39.9962 36.2052 39.2255 40.7507 38.9655 45.3482C38.9245 46.0732 38.2219 51.5635 39.2498 51.9724C40.4137 52.4355 43.9559 47.2556 44.4067 46.6811C48.2296 41.8089 51.7589 36.713 56.1418 32.3016C56.5241 31.9168 62.5277 26.0766 62.3545 28.2018C61.9309 33.3992 59.0948 38.3805 58.3751 43.5911C57.9068 46.9811 57.4423 52.1421 60.243 54.7999C62.6585 57.0922 66.463 54.7923 68.6484 53.2448C71.6383 51.1276 74.0543 48.2739 76.3635 45.4693C77.5823 43.9891 79.2578 42.036 76.5259 42.036" stroke="white" stroke-width="5" stroke-linecap="round"/>
<path id="Vector 5" d="M27.9207 52.2148C27.7862 52.0809 26.8674 51.3286 27.1086 51.5685C29.9411 54.386 33.5672 56.6274 36.6713 59.1622C38.7668 60.8733 40.8266 62.7287 42.8434 64.5343C43.2849 64.9296 44.3656 65.665 43.2697 64.9382" stroke="white" stroke-width="5" stroke-linecap="round"/>
</g>
</svg>
